<svg xmlns="http://www.w3.org/2000/svg" viewBox="0 0 820 760" width="820" height="760" font-family="'Inter', system-ui, -apple-system, sans-serif">
  <defs>
    <marker id="arrowhead" markerWidth="9" markerHeight="9" refX="7" refY="3" orient="auto" markerUnits="strokeWidth">
      <path d="M0,0 L7,3 L0,6 Z" fill="#3D3929"/>
    </marker>
  </defs>
  <rect x="0" y="0" width="820" height="760" rx="14" fill="#F5F0E8"/>
  <text x="32" y="40" font-family="'JetBrains Mono', 'Courier New', monospace" font-size="11" fill="#CC785C" letter-spacing="0.08em">ARCHITECTURE · RETRIEVAL TRADE-OFF</text>
  <text x="32" y="68" font-family="'Fraunces', Georgia, 'Times New Roman', serif" font-size="22" font-weight="500" fill="#2C2522">Retrieval strategy evaluation — long-form compliance docs</text>
<rect x="290.0" y="100" width="240" height="52" rx="8" fill="#FAF9F5" stroke="#2C2522" stroke-width="1.5"/>
<rect x="290.0" y="100" width="4" height="52" rx="2" fill="#A8B5A0"/>
<text x="410.0" y="131.0" text-anchor="middle" font-family="'Fraunces', Georgia, 'Times New Roman', serif" font-size="15" font-weight="500" fill="#2C2522">300+ page compliance documents</text>
<line x1="410.0" y1="152" x2="410.0" y2="178" stroke="#3D3929" stroke-width="1.5" marker-end="url(#arrowhead)"/>
<rect x="290.0" y="180" width="240" height="52" rx="8" fill="#FAF9F5" stroke="#2C2522" stroke-width="1.5"/>
<rect x="290.0" y="180" width="4" height="52" rx="2" fill="#A8B5A0"/>
<text x="410.0" y="200.0" text-anchor="middle" font-family="'Fraunces', Georgia, 'Times New Roman', serif" font-size="15" font-weight="500" fill="#2C2522">Ingestion pipeline</text>
<text x="410.0" y="219.0" text-anchor="middle" font-family="'Inter', system-ui, -apple-system, sans-serif" font-size="11.5" fill="#6B5F58">parsing · normalization · metadata</text>
<line x1="410.0" y1="232" x2="410.0" y2="250" stroke="#3D3929" stroke-width="1.5" marker-end="url(#arrowhead)"/>
<line x1="180" y1="250" x2="640" y2="250" stroke="#3D3929" stroke-width="1.5"/>
<line x1="180" y1="250" x2="180" y2="272" stroke="#3D3929" stroke-width="1.5" marker-end="url(#arrowhead)"/>
<line x1="640" y1="250" x2="640" y2="272" stroke="#3D3929" stroke-width="1.5" marker-end="url(#arrowhead)"/>
<rect x="40.0" y="274" width="280" height="78" rx="8" fill="#FAF9F5" stroke="#CC785C" stroke-width="1.5"/>
<rect x="40.0" y="274" width="4" height="78" rx="2" fill="#CC785C"/>
<text x="180.0" y="299.0" text-anchor="middle" font-family="'Fraunces', Georgia, 'Times New Roman', serif" font-size="15" font-weight="500" fill="#2C2522">Strategy A — Chunked RAG</text>
<text x="180.0" y="318.0" text-anchor="middle" font-family="'Inter', system-ui, -apple-system, sans-serif" font-size="11.5" fill="#6B5F58">semantic + recursive chunking</text>
<text x="180.0" y="335.0" text-anchor="middle" font-family="'JetBrains Mono', 'Courier New', monospace" font-size="10" fill="#3D3929" letter-spacing="0.02em">Qdrant hybrid · cross-encoder rerank</text>
<rect x="500.0" y="274" width="280" height="78" rx="8" fill="#FAF9F5" stroke="#CC785C" stroke-width="1.5"/>
<rect x="500.0" y="274" width="4" height="78" rx="2" fill="#CC785C"/>
<text x="640.0" y="299.0" text-anchor="middle" font-family="'Fraunces', Georgia, 'Times New Roman', serif" font-size="15" font-weight="500" fill="#2C2522">Strategy B — PageIndex</text>
<text x="640.0" y="318.0" text-anchor="middle" font-family="'Inter', system-ui, -apple-system, sans-serif" font-size="11.5" fill="#6B5F58">hierarchical page-tree retrieval</text>
<text x="640.0" y="335.0" text-anchor="middle" font-family="'JetBrains Mono', 'Courier New', monospace" font-size="10" fill="#3D3929" letter-spacing="0.02em">structure-aware · long-doc native</text>
<text x="410.0" y="314" text-anchor="middle" font-family="'Inter', system-ui, -apple-system, sans-serif" font-size="11" fill="#CC785C" font-style="italic">evaluated head-to-head</text>
<line x1="180" y1="352" x2="180" y2="370" stroke="#3D3929" stroke-width="1.5" marker-end="url(#arrowhead)"/>
<line x1="640" y1="352" x2="640" y2="370" stroke="#3D3929" stroke-width="1.5" marker-end="url(#arrowhead)"/>
<line x1="180" y1="370" x2="640" y2="370" stroke="#3D3929" stroke-width="1.5"/>
<line x1="410.0" y1="370" x2="410.0" y2="392" stroke="#3D3929" stroke-width="1.5" marker-end="url(#arrowhead)"/>
<rect x="290.0" y="394" width="240" height="56" rx="8" fill="#F0D9CF" stroke="#CC785C" stroke-width="1.5"/>
<rect x="290.0" y="394" width="4" height="56" rx="2" fill="#CC785C"/>
<text x="410.0" y="416.0" text-anchor="middle" font-family="'Fraunces', Georgia, 'Times New Roman', serif" font-size="15" font-weight="500" fill="#2C2522">Claude Sonnet · AWS Bedrock</text>
<text x="410.0" y="435.0" text-anchor="middle" font-family="'Inter', system-ui, -apple-system, sans-serif" font-size="11.5" fill="#6B5F58">citation-grounded generation</text>
<line x1="410.0" y1="450" x2="410.0" y2="476" stroke="#3D3929" stroke-width="1.5" marker-end="url(#arrowhead)"/>
<rect x="250.0" y="478" width="320" height="68" rx="8" fill="#EDE5F0" stroke="#C9B8D9" stroke-width="1.5"/>
<rect x="250.0" y="478" width="4" height="68" rx="2" fill="#C9B8D9"/>
<text x="410.0" y="498.0" text-anchor="middle" font-family="'Fraunces', Georgia, 'Times New Roman', serif" font-size="15" font-weight="500" fill="#2C2522">Evaluation harness</text>
<text x="410.0" y="517.0" text-anchor="middle" font-family="'Inter', system-ui, -apple-system, sans-serif" font-size="11.5" fill="#6B5F58">RAGAS · precision@k · faithfulness</text>
<text x="410.0" y="534.0" text-anchor="middle" font-family="'JetBrains Mono', 'Courier New', monospace" font-size="10" fill="#3D3929" letter-spacing="0.02em">answer relevancy · latency · $/query</text>
<line x1="410.0" y1="546" x2="410.0" y2="572" stroke="#3D3929" stroke-width="1.5" marker-end="url(#arrowhead)"/>
<rect x="260.0" y="574" width="300" height="52" rx="8" fill="#F5EBC9" stroke="#E8C547" stroke-width="1.5"/>
<rect x="260.0" y="574" width="4" height="52" rx="2" fill="#E8C547"/>
<text x="410.0" y="605.0" text-anchor="middle" font-family="'Fraunces', Georgia, 'Times New Roman', serif" font-size="15" font-weight="500" fill="#2C2522">Technology-selection recommendation</text>
</svg>