<svg xmlns="http://www.w3.org/2000/svg" viewBox="0 0 820 534" width="820" height="534" font-family="'Inter', system-ui, -apple-system, sans-serif">
  <defs>
    <marker id="arrowhead" markerWidth="9" markerHeight="9" refX="7" refY="3" orient="auto" markerUnits="strokeWidth">
      <path d="M0,0 L7,3 L0,6 Z" fill="#3D3929"/>
    </marker>
  </defs>
  <rect x="0" y="0" width="820" height="534" rx="14" fill="#F5F0E8"/>
  <text x="32" y="40" font-family="'JetBrains Mono', 'Courier New', monospace" font-size="11" fill="#CC785C" letter-spacing="0.08em">ARCHITECTURE · THE REMEDIATION</text>
  <text x="32" y="68" font-family="'Fraunces', Georgia, 'Times New Roman', serif" font-size="22" font-weight="500" fill="#2C2522">Paying down context debt</text>
<rect x="230.0" y="100" width="360" height="58" rx="8" fill="#FAF9F5" stroke="#2C2522" stroke-width="1.5"/>
<rect x="230.0" y="100" width="4" height="58" rx="2" fill="#A8B5A0"/>
<text x="410.0" y="123.0" text-anchor="middle" font-family="'Fraunces', Georgia, 'Times New Roman', serif" font-size="15" font-weight="500" fill="#2C2522">Sources</text>
<text x="410.0" y="142.0" text-anchor="middle" font-family="'Inter', system-ui, -apple-system, sans-serif" font-size="11.5" fill="#6B5F58">scored for freshness + authority, not just similarity</text>
<line x1="410.0" y1="158" x2="410.0" y2="182" stroke="#3D3929" stroke-width="1.5" marker-end="url(#arrowhead)"/>
<rect x="230.0" y="182" width="360" height="58" rx="8" fill="#FAF9F5" stroke="#2C2522" stroke-width="1.5"/>
<text x="410.0" y="205.0" text-anchor="middle" font-family="'Fraunces', Georgia, 'Times New Roman', serif" font-size="15" font-weight="500" fill="#2C2522">Retrieval + assembly</text>
<text x="410.0" y="224.0" text-anchor="middle" font-family="'Inter', system-ui, -apple-system, sans-serif" font-size="11.5" fill="#6B5F58">bounded scope · least context that answers the question</text>
<line x1="410.0" y1="240" x2="410.0" y2="264" stroke="#3D3929" stroke-width="1.5" marker-end="url(#arrowhead)"/>
<rect x="230.0" y="264" width="360" height="58" rx="8" fill="#EDE5F0" stroke="#C9B8D9" stroke-width="1.5"/>
<rect x="230.0" y="264" width="4" height="58" rx="2" fill="#C9B8D9"/>
<text x="410.0" y="287.0" text-anchor="middle" font-family="'Fraunces', Georgia, 'Times New Roman', serif" font-size="15" font-weight="500" fill="#2C2522">Verification layer</text>
<text x="410.0" y="306.0" text-anchor="middle" font-family="'Inter', system-ui, -apple-system, sans-serif" font-size="11.5" fill="#6B5F58">check retrieved context against systems of record</text>
<line x1="410.0" y1="322" x2="410.0" y2="346" stroke="#3D3929" stroke-width="1.5" marker-end="url(#arrowhead)"/>
<rect x="230.0" y="346" width="360" height="58" rx="8" fill="#F0D9CF" stroke="#CC785C" stroke-width="1.5"/>
<rect x="230.0" y="346" width="4" height="58" rx="2" fill="#CC785C"/>
<text x="410.0" y="369.0" text-anchor="middle" font-family="'Fraunces', Georgia, 'Times New Roman', serif" font-size="15" font-weight="500" fill="#2C2522">Model</text>
<text x="410.0" y="388.0" text-anchor="middle" font-family="'Inter', system-ui, -apple-system, sans-serif" font-size="11.5" fill="#6B5F58">generates only on verified context</text>
<line x1="410.0" y1="404" x2="410.0" y2="428" stroke="#3D3929" stroke-width="1.5" marker-end="url(#arrowhead)"/>
<rect x="230.0" y="428" width="360" height="58" rx="8" fill="#F5EBC9" stroke="#E8C547" stroke-width="1.5"/>
<rect x="230.0" y="428" width="4" height="58" rx="2" fill="#E8C547"/>
<text x="410.0" y="451.0" text-anchor="middle" font-family="'Fraunces', Georgia, 'Times New Roman', serif" font-size="15" font-weight="500" fill="#2C2522">Output + trace</text>
<text x="410.0" y="470.0" text-anchor="middle" font-family="'Inter', system-ui, -apple-system, sans-serif" font-size="11.5" fill="#6B5F58">every decision logged · low confidence routes to a human</text>
</svg>